<svg
      width="256px"
      height="256px"
      viewBox="-102.4 -102.4 1228.80 1228.80"
      class="icon"
      version="1.1"
      xmlns="http://www.w3.org/2000/svg"
      fill="#000000"
    >
      <g
        id="SVGRepo_bgCarrier"
        stroke-width="0"
        transform="translate(0,0), scale(1)"
      >
        <rect
          x="-102.4"
          y="-102.4"
          width="1228.80"
          height="1228.80"
          rx="614.4"
          fill="transparent"
          strokewidth="0"
        ></rect>
      </g>
      <g
        id="SVGRepo_tracerCarrier"
        stroke-linecap="round"
        stroke-linejoin="round"
      ></g>
      <g id="SVGRepo_iconCarrier">
        <path
          d="M202.4 32c-34.4 0-61.6 28-61.6 61.6v812.8c0 34.4 28 61.6 61.6 61.6h681.6V32H202.4z"
          fill="#818cf8"
        ></path>
        <path
          d="M264 32h-61.6c-34.4 0-61.6 28-61.6 61.6v812.8c0 34.4 28 61.6 61.6 61.6H264V32z"
          fill="#090C10"
        ></path>
        <path
          d="M195.2 848h686.4v116.8H195.2c-28.8 0-52.8-26.4-52.8-58.4s23.2-58.4 52.8-58.4z"
          fill="#FFFFFF"
        ></path>
        <path
          d="M884 976.8H202.4c-38.4 0-69.6-31.2-69.6-69.6V93.6c0-38.4 31.2-69.6 69.6-69.6h681.6c4.8 0 8 3.2 8 8v936.8c0 4-4 8-8 8zM202.4 40c-29.6 0-53.6 24-53.6 53.6v812.8c0 29.6 24 53.6 53.6 53.6h673.6V40H202.4z"
          fill="#6A576D"
        ></path>
        <path
          d="M140 914.4c-4.8 0-8-3.2-8-8V93.6c0-38.4 31.2-69.6 69.6-69.6H264c4.8 0 8 3.2 8 8v812.8c0 4.8-3.2 8-8 8h-61.6c-29.6 0-53.6 24-53.6 53.6-0.8 4.8-4 8-8.8 8zM202.4 40c-29.6 0-53.6 24-53.6 53.6v768c12.8-15.2 32-25.6 53.6-25.6H256V40h-53.6z"
          fill="#6A576D"
        ></path>
        <path d="M260.8 898.4h47.2V992h-47.2z" fill="#F1ED7B"></path>
        <path
          d="M308 1000h-47.2c-4.8 0-8-3.2-8-8v-93.6c0-4.8 3.2-8 8-8h47.2c4.8 0 8 3.2 8 8V992c0 4.8-4 8-8 8z m-39.2-16h31.2v-77.6h-31.2v77.6z"
          fill="#6A576D"
        ></path>
        <path
          d="M692 453.6H449.6c-34.4 0-62.4-28-62.4-62.4V281.6c0-34.4 28-62.4 62.4-62.4h242.4c34.4 0 62.4 28 62.4 62.4v109.6c0 34.4-28 62.4-62.4 62.4z"
          fill="#FFFFFF"
        ></path>
        <path
          d="M692 461.6H449.6c-38.4 0-70.4-31.2-70.4-70.4V281.6c0-38.4 31.2-70.4 70.4-70.4h242.4c38.4 0 70.4 31.2 70.4 70.4v109.6c0 38.4-32 70.4-70.4 70.4zM449.6 227.2c-29.6 0-54.4 24-54.4 54.4v109.6c0 29.6 24 54.4 54.4 54.4h242.4c29.6 0 54.4-24 54.4-54.4V281.6c0-29.6-24-54.4-54.4-54.4H449.6zM884 852.8H264c-4.8 0-8-3.2-8-8s3.2-8 8-8h620c4.8 0 8 3.2 8 8s-4 8-8 8z"
          fill="#6A576D"
        ></path>
      </g>
    </svg>